<svg width="200" height="200" xmlns="http://www.w3.org/2000/svg" viewBox="0 0 100 100" preserveAspectRatio="xMidYMid" class="lds-wedges" style="background:0% 0%"><g transform="matrix(.7 0 0 .7 15 15)"><animateTransform attributeName="transform" type="rotate" calcMode="linear" values="0 50 50;360 50 50" keyTimes="0;1" dur="1.975s" begin="0s" repeatCount="indefinite"/><path d="M50 50V0a50 50 0 0 1 50 50z" fill-opacity=".8" fill="#1d3f72"/></g><g transform="matrix(.7 0 0 .7 15 15)"><animateTransform attributeName="transform" type="rotate" calcMode="linear" values="0 50 50;360 50 50" keyTimes="0;1" dur="2.6333333333333333s" begin="0s" repeatCount="indefinite"/><path d="M50 50h50a50 50 0 0 1-50 50z" fill-opacity=".8" fill="#5699d2"/></g><g transform="matrix(.7 0 0 .7 15 15)"><animateTransform attributeName="transform" type="rotate" calcMode="linear" values="0 50 50;360 50 50" keyTimes="0;1" dur="3.95s" begin="0s" repeatCount="indefinite"/><path d="M50 50v50A50 50 0 0 1 0 50z" fill-opacity=".8" fill="#71c2cc"/></g><g transform="matrix(.7 0 0 .7 15 15)"><animateTransform attributeName="transform" type="rotate" calcMode="linear" values="0 50 50;360 50 50" keyTimes="0;1" dur="7.9s" begin="0s" repeatCount="indefinite"/><path d="M50 50H0A50 50 0 0 1 50 0z" fill-opacity=".8" fill="#4996a2"/></g></svg>