<svg xmlns="http://www.w3.org/2000/svg" viewBox="0 0 511.189 511.189" width="512" height="512"><path d="M364.858 157.935l-98.59-145.28c-8.547-12.586-22.158-12.331-30.25.526l-90.88 144.228c-8.093 12.857-2.56 23.381 12.302 23.381h26.639v50.148c0 15.7 12.742 28.445 28.445 28.445h85.333c15.73 0 28.445-12.743 28.445-28.445V180.79h27.008c14.875 0 20.109-10.269 11.547-22.855M51.115 338.628H19.641C5.774 338.628 0 328.5 0 318.703c0-10.098 7.225-19.912 19.641-19.912h106.226c12.43 0 19.655 9.814 19.655 19.912 0 9.798-5.773 19.925-19.655 19.925h-31.46v144.91c0 14.45-9.23 22.527-21.646 22.527s-21.646-8.079-21.646-22.527v-144.91zm249.444 62.933c0-34.93-18.19-66.417-54.273-66.417-36.096 0-54.286 31.487-54.286 66.417 0 35.214 17.621 66.389 54.286 66.389s54.273-31.175 54.273-66.389m-153.587 0c0-60.046 40.405-106.253 99.314-106.253 58.013 0 99.3 47.658 99.3 106.253 0 59.748-40.121 106.254-99.3 106.254-58.61 0-99.314-46.506-99.314-106.254m260.01-3.47h29.454c18.176 0 29.71-13.283 29.71-30.592 0-17.338-11.534-30.62-29.71-30.62h-29.454v61.212zm-43.32-76.786c0-13.582 8.093-22.5 22.543-22.5h51.072c42.454 0 73.913 27.691 73.913 68.978 0 42.14-32.611 68.422-72.164 68.422h-32.042v47.346c0 14.435-9.23 22.528-21.633 22.528-12.445 0-21.689-8.093-21.689-22.528V321.305z" data-original="#292F33" class="active-path" data-old_color="#AA1354" fill="#AD1355"/></svg>